<?plantuml 1.2026.2?><svg xmlns="http://www.w3.org/2000/svg" xmlns:xlink="http://www.w3.org/1999/xlink" contentStyleType="text/css" data-diagram-type="CLASS" height="514px" preserveAspectRatio="none" style="width:732px;height:514px;background:#FFFFFF;" version="1.1" viewBox="0 0 732 514" width="732px" zoomAndPan="magnify"><defs/><g><!--class CreateCategoryView--><g class="entity" data-qualified-name="CreateCategoryView" data-source-line="4" id="ent0002"><rect fill="#F1F1F1" height="42.4883" rx="2.5" ry="2.5" style="stroke:#181818;stroke-width:0.5;" width="142.5957" x="218.05" y="7"/><text fill="#000000" font-family="sans-serif" font-size="14" lengthAdjust="spacing" textLength="136.5957" x="221.05" y="25.5352">CreateCategoryView</text><line style="stroke:#181818;stroke-width:0.5;" x1="219.05" x2="359.6457" y1="33.4883" y2="33.4883"/><line style="stroke:#181818;stroke-width:0.5;" x1="219.05" x2="359.6457" y1="41.4883" y2="41.4883"/></g><!--class CreateCategoryController--><g class="entity" data-qualified-name="CreateCategoryController" data-source-line="7" id="ent0003"><rect fill="#F1F1F1" height="75.4648" rx="2.5" ry="2.5" style="stroke:#181818;stroke-width:0.5;" width="377.4014" x="100.65" y="110.49"/><text fill="#000000" font-family="sans-serif" font-size="14" lengthAdjust="spacing" textLength="172.9697" x="202.8658" y="129.0252">CreateCategoryController</text><line style="stroke:#181818;stroke-width:0.5;" x1="101.65" x2="477.0514" y1="136.9783" y2="136.9783"/><line style="stroke:#181818;stroke-width:0.5;" x1="101.65" x2="477.0514" y1="144.9783" y2="144.9783"/><text fill="#000000" font-family="sans-serif" font-size="14" lengthAdjust="spacing" textLength="365.4014" x="106.65" y="162.5134">+createCategory(string code, string description): void</text><text fill="#000000" font-family="sans-serif" font-size="14" lengthAdjust="spacing" textLength="214.3887" x="106.65" y="179.0017">+saveCreatedCategory(): Result</text></g><!--class App--><g class="entity" data-qualified-name="App" data-source-line="12" id="ent0004"><rect fill="#F1F1F1" height="91.9531" rx="2.5" ry="2.5" style="stroke:#181818;stroke-width:0.5;" width="316.9238" x="130.89" y="246.95"/><text fill="#000000" font-family="sans-serif" font-size="14" lengthAdjust="spacing" textLength="27.2822" x="275.7108" y="265.4852">App</text><line style="stroke:#181818;stroke-width:0.5;" x1="131.89" x2="446.8138" y1="273.4383" y2="273.4383"/><line style="stroke:#181818;stroke-width:0.5;" x1="131.89" x2="446.8138" y1="281.4383" y2="281.4383"/><text fill="#000000" font-family="sans-serif" font-size="14" lengthAdjust="spacing" textLength="44.4883" x="136.89" y="298.9734">-App()</text><text fill="#000000" font-family="sans-serif" font-size="14" lengthAdjust="spacing" text-decoration="underline" textLength="134.627" x="136.89" y="315.4617">+getInstance(): App</text><text fill="#000000" font-family="sans-serif" font-size="14" lengthAdjust="spacing" textLength="304.9238" x="136.89" y="331.95">+getCategoryContainer(): CategoryContainer</text></g><!--class CategoryContainer--><g class="entity" data-qualified-name="CategoryContainer" data-source-line="18" id="ent0005"><rect fill="#F1F1F1" height="75.4648" rx="2.5" ry="2.5" style="stroke:#181818;stroke-width:0.5;" width="348.6973" x="7" y="424.15"/><text fill="#000000" font-family="sans-serif" font-size="14" lengthAdjust="spacing" textLength="127.0322" x="117.8325" y="442.6852">CategoryContainer</text><line style="stroke:#181818;stroke-width:0.5;" x1="8" x2="354.6973" y1="450.6383" y2="450.6383"/><line style="stroke:#181818;stroke-width:0.5;" x1="8" x2="354.6973" y1="458.6383" y2="458.6383"/><text fill="#000000" font-family="sans-serif" font-size="14" lengthAdjust="spacing" textLength="336.6973" x="13" y="476.1734">+create(string code, string description): Category</text><text fill="#000000" font-family="sans-serif" font-size="14" lengthAdjust="spacing" textLength="187.6943" x="13" y="492.6617">+save(Category obj): Result</text></g><!--class Category--><g class="entity" data-qualified-name="Category" data-source-line="23" id="ent0006"><rect fill="#F1F1F1" height="91.9531" rx="2.5" ry="2.5" style="stroke:#181818;stroke-width:0.5;" width="287.2422" x="438.73" y="415.91"/><text fill="#000000" font-family="sans-serif" font-size="14" lengthAdjust="spacing" textLength="60.8262" x="551.938" y="434.4452">Category</text><line style="stroke:#181818;stroke-width:0.5;" x1="439.73" x2="724.9722" y1="442.3983" y2="442.3983"/><text fill="#000000" font-family="sans-serif" font-size="14" lengthAdjust="spacing" textLength="40.4824" x="444.73" y="459.9334">-code</text><text fill="#000000" font-family="sans-serif" font-size="14" lengthAdjust="spacing" textLength="84.1777" x="444.73" y="476.4217">-description</text><line style="stroke:#181818;stroke-width:0.5;" x1="439.73" x2="724.9722" y1="483.3748" y2="483.3748"/><text fill="#000000" font-family="sans-serif" font-size="14" lengthAdjust="spacing" textLength="275.2422" x="444.73" y="500.91">Category(string code, string description)</text></g><!--link CreateCategoryView to CreateCategoryController--><g class="link" data-entity-1="ent0002" data-entity-2="ent0003" data-link-type="dependency" data-source-line="29" id="lnk7"><path codeLine="29" d="M289.35,49.79 C289.35,66.43 289.35,84.29 289.35,104.24" fill="none" id="CreateCategoryView-to-CreateCategoryController" style="stroke:#181818;stroke-width:1;stroke-dasharray:7,7;"/><polygon fill="#181818" points="289.35,110.24,293.35,101.24,289.35,105.24,285.35,101.24,289.35,110.24" style="stroke:#181818;stroke-width:1;"/></g><!--link CreateCategoryController to App--><g class="link" data-entity-1="ent0003" data-entity-2="ent0004" data-link-type="dependency" data-source-line="31" id="lnk8"><path codeLine="31" d="M289.35,186.34 C289.35,204.76 289.35,221.16 289.35,240.59" fill="none" id="CreateCategoryController-to-App" style="stroke:#181818;stroke-width:1;stroke-dasharray:7,7;"/><polygon fill="#181818" points="289.35,246.59,293.35,237.59,289.35,241.59,285.35,237.59,289.35,246.59" style="stroke:#181818;stroke-width:1;"/></g><!--link CreateCategoryController to CategoryContainer--><g class="link" data-entity-1="ent0003" data-entity-2="ent0005" data-link-type="dependency" data-source-line="32" id="lnk9"><path codeLine="32" d="M181.14,186.25 C154.33,200.84 128.86,220.6 113.35,246.95 C79.74,304.05 117.2972,374.7501 148.6472,419.1101" fill="none" id="CreateCategoryController-to-CategoryContainer" style="stroke:#181818;stroke-width:1;stroke-dasharray:7,7;"/><polygon fill="#181818" points="152.11,424.01,150.1823,414.3516,149.2243,419.9268,143.6492,418.9687,152.11,424.01" style="stroke:#181818;stroke-width:1;"/></g><!--link CreateCategoryController to Category--><g class="link" data-entity-1="ent0003" data-entity-2="ent0006" data-link-type="dependency" data-source-line="33" id="lnk10"><path codeLine="33" d="M463.11,186.44 C495.14,200.58 525.37,220.07 547.35,246.95 C586.18,294.44 590.0704,362.1986 587.5404,409.5086" fill="none" id="CreateCategoryController-to-Category" style="stroke:#181818;stroke-width:1;stroke-dasharray:7,7;"/><polygon fill="#181818" points="587.22,415.5,591.6949,406.7264,587.487,410.5071,583.7063,406.2992,587.22,415.5" style="stroke:#181818;stroke-width:1;"/></g><!--link App to App--><g class="link" data-entity-1="ent0004" data-entity-2="ent0004" data-link-type="dependency" data-source-line="35" id="lnk11"><path codeLine="35" d="M447.99,280.29 C468.92,282.44 482.81,286.66 482.81,292.93 C482.81,299.2 474.8883,302.8041 453.9583,304.9641" fill="none" id="App-to-App" style="stroke:#181818;stroke-width:1;"/><polygon fill="#181818" points="447.99,305.58,457.3531,308.635,452.9636,305.0667,456.5318,300.6772,447.99,305.58" style="stroke:#181818;stroke-width:1;"/><text fill="#000000" font-family="sans-serif" font-size="13" lengthAdjust="spacing" textLength="52.4634" x="488.81" y="297.9984">instance</text><text fill="#000000" font-family="sans-serif" font-size="13" lengthAdjust="spacing" textLength="8.2202" x="455.8731" y="303.4055">1</text></g><!--link App to CategoryContainer--><g class="link" data-entity-1="ent0004" data-entity-2="ent0005" data-link-type="dependency" data-source-line="36" id="lnk12"><path codeLine="36" d="M260.12,339.11 C242.94,365.67 224.7486,393.792 208.5786,418.792" fill="none" id="App-to-CategoryContainer" style="stroke:#181818;stroke-width:1;"/><polygon fill="#181818" points="205.32,423.83,213.5666,418.4454,208.0355,419.6317,206.8492,414.1006,205.32,423.83" style="stroke:#181818;stroke-width:1;"/><text fill="#000000" font-family="sans-serif" font-size="13" lengthAdjust="spacing" textLength="61.6357" x="239.59" y="382.4784">maintains</text><text fill="#000000" font-family="sans-serif" font-size="13" lengthAdjust="spacing" textLength="8.2202" x="196.5509" y="413.312">1</text></g><!--link CategoryContainer to Category--><g class="link" data-entity-1="ent0005" data-entity-2="ent0006" data-link-type="dependency" data-source-line="38" id="lnk13"><path codeLine="38" d="M356.07,461.88 C383.5,461.88 405.6,461.88 432.24,461.88" fill="none" id="CategoryContainer-to-Category" style="stroke:#181818;stroke-width:1;"/><polygon fill="#181818" points="438.24,461.88,429.24,457.88,433.24,461.88,429.24,465.88,438.24,461.88" style="stroke:#181818;stroke-width:1;"/><text fill="#000000" font-family="sans-serif" font-size="13" lengthAdjust="spacing" textLength="47.3345" x="373.71" y="455.4484">records</text><text fill="#000000" font-family="sans-serif" font-size="13" lengthAdjust="spacing" textLength="6.2651" x="420.5874" y="474.8427">*</text></g><?plantuml-src ZL7BQiCm4BphAnQVd3O9xTK7G_0frnPwLwJ5tTQHZAIaj27_NicHKzLHm0Q3TcTcN_DE4a6G4Hqo-qcgvuRlGNJSserpXdO7XrkXrIlz83mnDY3G6EGE6_-tsdo_4Nx1YPtpQAELCxhhq7WE-EyHn3z2QNqVrOBG4fSG0ubM6EeTQRMeuAX9HgtbHxmqaDS2dl62zj2vlnasVH_RhSAxN4JvoJhkI9oXHRTLFb02Wzvp8iC3wUYS59h0k4ac2q-XoQOpDXnB95kMOmxqxYEpuXKUzmpbupCfFcHctpgKpxYxNjTtRPqA4iE3B5psFg7Et7KEcx7WyAg6uhaOpAw0efqNP82Wo7XJmTu_Gc3zw3Tm408y95AlC2YqaVON?></g></svg>